# xmcd
#
# Track frame offsets:
#	150
#	9375
#	19564
#	38799
#	53218
#	67434
#	75807
#	94939
#	121036
#	134269
#	149542
#	166521
#
# Disc length: 2377 seconds
# Revision: 0
# Processed by: cddbd v1.5.2PL0 Copyright (c) Steve Scherf et al.
# Submitted via: dBpowerAMP V12.0
#
DISCID=9109470c
DTITLE=Terry Robb - Cool On The Bloom
DYEAR=2016
DGENRE=Blues
TTITLE0=Soc Hop
TTITLE1=Cool on the Bloom
TTITLE2=Christmas in Istanbul
TTITLE3=Watermelon Eye Patch Groove
TTITLE4=So Glad
TTITLE5=Soggy Foot Rag
TTITLE6=You Showed Me
TTITLE7=Holy Spirit, Father and Son
TTITLE8=Ham Hound Crave
TTITLE9=Late Night Kahl
TTITLE10=Honey One
TTITLE11=Gramma Jean
EXTD=
EXTT0=
EXTT1=
EXTT2=
EXTT3=
EXTT4=
EXTT5=
EXTT6=
EXTT7=
EXTT8=
EXTT9=
EXTT10=
EXTT11=
PLAYORDER=
